<svg xmlns="http://www.w3.org/2000/svg" width="922.252" height="1001.011"><defs><clipPath id="a"><path d="M0 554.124h124v56H0z"/></clipPath><clipPath id="b"><path d="M211.752 554.124h124v56h-124z"/></clipPath><clipPath id="c"><path d="M786.756 754.853h135.496v56H786.756z"/></clipPath><clipPath id="d"><path d="M387.962 554.124h124v56h-124z"/></clipPath><clipPath id="e"><path d="M379.38 945.011h135.495v56H379.38z"/></clipPath><clipPath id="f"><path d="M641.902 945.011h135.496v56H641.902z"/></clipPath></defs><g fill="none"><path d="M582.988 276.361v72.946a.5.5 0 0 0 1 0v-72.946a.5.5 0 1 0-1 0zM447.627 935.111v-71.47l-.5.5H709.65l-.5-.5v71.47a.5.5 0 1 0 1 0v-71.47a.5.5 0 0 0-.5-.5H447.127a.5.5 0 0 0-.5.5v71.47a.5.5 0 1 0 1 0zm262.523 8v-8h-1v8zm3.146-4.353l-4 4h.707l-4-4-.707.707 4 4 .354.353.353-.353 4-4zm-265.669 4.353v-8h-1v8zm3.147-4.353l-4 4h.707l-4-4-.707.707 4 4 .353.353.354-.353 4-4zM168.376 161.407v-31.225l-.5.5H583.488l-.5-.5v31.28a.5.5 0 1 0 1 0v-31.28a.5.5 0 0 0-.5-.5H167.876a.5.5 0 0 0-.5.5v31.225a.5.5 0 0 0 1 0zm415.612 8.054v-8h-1v8zm3.146-4.353l-4 4h.707l-4-4-.707.707 4 4 .354.353.353-.353 4-4zm-418.758 4.3v-8h-1v8zm3.146-4.354l-4 4h.707l-4-4-.707.707 4 4 .354.353.353-.353 4-4zM167.376 276.307V349.4a.5.5 0 1 0 1 0v-73.093a.5.5 0 1 0-1 0zM583.444 454.12l.169 19.384a.5.5 0 1 0 1-.008l-.17-19.385a.5.5 0 1 0-1 .01zM62.5 544.224v-70.448l-.5.5h211.752l-.5-.5v70.448a.5.5 0 1 0 1 0v-70.448a.5.5 0 0 0-.5-.5H62a.5.5 0 0 0-.5.5v70.448a.5.5 0 1 0 1 0zm211.752 8v-8h-1v8zm3.146-4.354l-4 4h.707l-4-4-.707.707 4 4 .354.354.353-.354 4-4zM62.5 552.224v-8h-1v8zm3.146-4.354l-4 4h.708l-4-4-.708.707 4 4 .354.354.354-.354 4-4z" fill="#616161"/><path d="M168.282 454.019l-.02 12.756v7.001a.5.5 0 1 0 1 0v-7l.02-12.756a.5.5 0 1 0-1-.001zM716.454 642.644l-.13 32.834a.5.5 0 0 0 1 .004l.13-32.834a.5.5 0 0 0-1-.004z" fill="#616161"/><path d="M579.225 744.953V675.48l-.5.5h275.779l-.5-.5v69.473a.5.5 0 1 0 1 0V675.48a.5.5 0 0 0-.5-.5h-275.78a.5.5 0 0 0-.5.5v69.473a.5.5 0 0 0 1 0zm275.779 8v-8h-1v8zm3.146-4.354l-4 4h.707l-4-4-.707.707 4 4 .354.354.353-.354 4-4zm-278.925 4.354v-8h-1v8zm3.146-4.354l-4 4h.707l-4-4-.707.707 4 4 .354.354.353-.354 4-4zM578.017 843.085l-.092 19.49a.5.5 0 0 0 1 .004l.092-19.49a.5.5 0 0 0-1-.004zM375.967 130.183l.052-25.221a.5.5 0 1 0-1-.002l-.052 25.221a.5.5 0 1 0 1 .002zM583.444 454.12l.169 19.384a.5.5 0 1 0 1-.008l-.17-19.385a.5.5 0 1 0-1 .01zM168.282 454.019l-.02 12.756v7.001a.5.5 0 1 0 1 0v-7l.02-12.756a.5.5 0 1 0-1-.001zM582.988 276.361v72.946a.5.5 0 0 0 1 0v-72.946a.5.5 0 1 0-1 0zM167.376 276.307V349.4a.5.5 0 1 0 1 0v-73.093a.5.5 0 1 0-1 0z" fill="#616161"/><path d="M716.454 642.644l-.13 32.834a.5.5 0 0 0 1 .004l.13-32.834a.5.5 0 0 0-1-.004zM578.017 843.085l-.092 19.49a.5.5 0 0 0 1 .004l.092-19.49a.5.5 0 0 0-1-.004zM450.462 544.5v-71l-.5.5H717.127l-.5-.5v71a.5.5 0 0 0 1 0v-71a.5.5 0 0 0-.5-.5H449.962a.5.5 0 0 0-.5.5v71a.5.5 0 1 0 1 0zm267.165 8v-8h-1v8zm3.147-4.354l-4 4h.707l-4-4-.707.708 4 4 .353.353.354-.353 4-4zM450.462 552.5v-8h-1v8zm3.146-4.354l-4 4h.707l-4-4-.707.708 4 4 .354.353.353-.353 4-4zM62.5 544.224v-70.448l-.5.5h211.752l-.5-.5v70.448a.5.5 0 1 0 1 0v-70.448a.5.5 0 0 0-.5-.5H62a.5.5 0 0 0-.5.5v70.448a.5.5 0 1 0 1 0zm211.752 8v-8h-1v8zm3.146-4.354l-4 4h.707l-4-4-.707.707 4 4 .354.354.353-.354 4-4zM62.5 552.224v-8h-1v8zm3.146-4.354l-4 4h.708l-4-4-.708.707 4 4 .354.354.354-.354 4-4zM168.376 161.407v-31.225l-.5.5H583.488l-.5-.5v31.28a.5.5 0 1 0 1 0v-31.28a.5.5 0 0 0-.5-.5H167.876a.5.5 0 0 0-.5.5v31.225a.5.5 0 0 0 1 0zm415.612 8.054v-8h-1v8zm3.146-4.353l-4 4h.707l-4-4-.707.707 4 4 .354.353.353-.353 4-4zm-418.758 4.3v-8h-1v8zm3.146-4.354l-4 4h.707l-4-4-.707.707 4 4 .354.353.353-.353 4-4z" fill="#616161"/><path d="M579.225 744.953V675.48l-.5.5h275.779l-.5-.5v69.473a.5.5 0 1 0 1 0V675.48a.5.5 0 0 0-.5-.5h-275.78a.5.5 0 0 0-.5.5v69.473a.5.5 0 0 0 1 0zm275.779 8v-8h-1v8zm3.146-4.354l-4 4h.707l-4-4-.707.707 4 4 .354.354.353-.354 4-4zm-278.925 4.354v-8h-1v8zm3.146-4.354l-4 4h.707l-4-4-.707.707 4 4 .354.354.353-.354 4-4z" fill="#616161"/><path fill="#fff" d="M0 554.124h124v56H0z"/><path stroke="#dfdfdf" stroke-linecap="round" stroke-linejoin="round" stroke-width="2" clip-path="url(#a)" d="M0 554.124h124v56H0z"/><text transform="translate(25 575.124)" fill="#212121"><tspan font-family="Roboto-Regular, Roboto, Arial, Helvetica, sans-serif" font-size="12" font-weight="400" x=".103" y="11">Direct Peering</tspan></text><path d="M375.627 0l145 52.5-145 52.5-145-52.5z" fill="#e5f2ec"/><text transform="translate(274.777 37.45)" fill="#000"><tspan font-family="Roboto-Regular, Roboto, Arial, Helvetica, sans-serif" font-size="12" font-weight="400" x="23.893" y="11">Do you need access to private </tspan> <tspan font-family="Roboto-Regular, Roboto, Arial, Helvetica, sans-serif" font-size="12" font-weight="400" x="3.728" y="25">compute resources on Google Cloud?</tspan></text><path d="M167.876 171.307l125 52.5-125 52.5-125-52.5z" fill="#e5f2ec"/><text transform="translate(81.626 208.757)" fill="#000"><tspan font-family="Roboto-Regular, Roboto, Arial, Helvetica, sans-serif" font-size="12" font-weight="400" x="48.936" y="11">Do you need to </tspan> <tspan font-family="Roboto-Regular, Roboto, Arial, Helvetica, sans-serif" font-size="12" font-weight="400" x="37.067" y="25">connect to G Suite?</tspan></text><path d="M583.488 171.361l125 52.5-125 52.5-125-52.5z" fill="#e5f2ec"/><text transform="translate(497.238 201.811)" fill="#000"><tspan font-family="Roboto-Regular, Roboto, Arial, Helvetica, sans-serif" font-size="12" font-weight="400" x="29.465" y="11">Do you need to extend </tspan> <tspan font-family="Roboto-Regular, Roboto, Arial, Helvetica, sans-serif" font-size="12" font-weight="400" x="43.829" y="25">the reach of your </tspan> <tspan font-family="Roboto-Regular, Roboto, Arial, Helvetica, sans-serif" font-size="12" font-weight="400" x="34.316" y="39">Data Center to GCP?</tspan></text><path d="M167.876 349.4l125 52.5-125 52.5-125-52.5z" fill="#e5f2ec"/><text transform="translate(81.626 386.85)" fill="#000"><tspan font-family="Roboto-Regular, Roboto, Arial, Helvetica, sans-serif" font-size="12" font-weight="400" x="27.446" y="11">Can you meet Google’s </tspan> <tspan font-family="Roboto-Regular, Roboto, Arial, Helvetica, sans-serif" font-size="12" font-weight="400" x="29.151" y="25">peering requirements? </tspan></text><path d="M583.488 349.307l125 52.5-125 52.5-125-52.5z" fill="#e5f2ec"/><text transform="translate(497.238 386.757)" fill="#000"><tspan font-family="Roboto-Regular, Roboto, Arial, Helvetica, sans-serif" font-size="12" font-weight="400" x="31.091" y="11">Does your application </tspan> <tspan font-family="Roboto-Regular, Roboto, Arial, Helvetica, sans-serif" font-size="12" font-weight="400" x="23.972" y="25">encrypt sensitive traffic? </tspan></text><path d="M717.127 554.4l125 44.154-125 44.154-125-44.154z" fill="#e5f2ec"/><text transform="translate(630.877 583.67)" fill="#000"><tspan font-family="Roboto-Regular, Roboto, Arial, Helvetica, sans-serif" font-size="12" font-weight="400" x="45.446" y="11">Can you meet at </tspan> <tspan font-family="Roboto-Regular, Roboto, Arial, Helvetica, sans-serif" font-size="12" font-weight="400" x="31.126" y="25">one of Google’s POP?</tspan></text><path d="M578.725 754.853l125 44.154-125 44.154-125-44.154z" fill="#e5f2ec"/><text transform="translate(492.474 791.124)" fill="#000"><tspan font-family="Roboto-Regular, Roboto, Arial, Helvetica, sans-serif" font-size="12" font-weight="400" x="11.371" y="11">Is a 10G pipe too big for you?</tspan></text><path fill="#fff" d="M211.752 554.124h124v56h-124z"/><path stroke="#dfdfdf" stroke-linecap="round" stroke-linejoin="round" stroke-width="2" clip-path="url(#b)" d="M211.752 554.124h124v56h-124z"/><text transform="translate(234.752 575.124)" fill="#212121"><tspan font-family="Roboto-Regular, Roboto, Arial, Helvetica, sans-serif" font-size="12" font-weight="400" x=".353" y="11">Carrier Peering</tspan></text><path fill="#fff" d="M786.756 754.853h135.496v56H786.756z"/><path stroke="#dfdfdf" stroke-linecap="round" stroke-linejoin="round" stroke-width="2" clip-path="url(#c)" d="M786.756 754.853h135.496v56H786.756z"/><text transform="translate(837.756 768.853)" fill="#212121"><tspan font-family="Roboto-Regular, Roboto, Arial, Helvetica, sans-serif" font-size="12" font-weight="400" x="0" y="11">Partner</tspan> <tspan font-family="Roboto-Regular, Roboto, Arial, Helvetica, sans-serif" font-size="12" font-weight="400" x="0" y="25">Interconnect</tspan></text><path d="M830.422 781.567l-5.754-10.006a2.528 2.528 0 0 0-2.158-1.286h-11.508a2.526 2.526 0 0 0-2.158 1.285l-5.754 9.986a2.51 2.51 0 0 0 0 2.502l5.753 10.052a2.575 2.575 0 0 0 2.158 1.33h11.508a2.565 2.565 0 0 0 2.159-1.325l5.753-10.006a2.566 2.566 0 0 0 0-2.533z" fill="#4285f4"/><path d="M824.668 794.105l4.764-8.286-8.37-8.37-8.681 1.248 1.834 1.834-5.553 2.978 4.161 4.161-.377.584 7.178 7.177h2.885a2.565 2.565 0 0 0 2.159-1.326z" fill="#4b7ddc"/><path fill="#fff" d="M816.099 778.697h1.313v8.312h-1.313z"/><path fill="#fff" d="M808.662 782.197h2.188v1.313h-2.188z"/><path d="M811.03 780.228h3.138c.221 0 .4.179.4.4v4.45a.4.4 0 0 1-.4.4h-3.137a.4.4 0 0 1-.4-.4v-4.45c0-.221.179-.4.4-.4z" fill="#fff"/><g><path fill="#fff" d="M816.099 778.697h1.313v8.312h-1.313z"/></g><g><path fill="#fff" d="M822.662 782.197h2.188v1.313h-2.188z"/></g><g><path d="M812.38 787.009v1.084a.229.229 0 0 0 .23.229h8.292a.228.228 0 0 0 .229-.229v-1.084z" fill="#fff"/></g><g><path d="M820.902 777.384h-8.293a.228.228 0 0 0-.228.228v1.085h8.75v-1.085a.228.228 0 0 0-.229-.228z" fill="#fff"/></g><g><path d="M819.343 780.228h3.138c.22 0 .4.179.4.4v4.45a.4.4 0 0 1-.4.4h-3.138a.4.4 0 0 1-.4-.4v-4.45c0-.221.18-.4.4-.4z" fill="#fff"/></g><g><circle cx="578.725" cy="710.5" r="17.5" fill="#0f9d58"/><text transform="translate(566.725 704)" fill="#fff"><tspan font-family="Helvetica" font-size="11" font-weight="400" x=".995" y="10">YES</tspan></text></g><g><circle cx="854.504" cy="713.517" r="17.5" fill="#fd574d"/><text transform="translate(845.504 707.017)" fill="#fff"><tspan font-family="Helvetica" font-size="11" font-weight="400" x=".75" y="10">NO</tspan></text></g><g><circle cx="447.127" cy="902.073" r="17.5" fill="#0f9d58"/><text transform="translate(435.127 895.573)" fill="#fff"><tspan font-family="Helvetica" font-size="11" font-weight="400" x=".995" y="10">YES</tspan></text></g><g><circle cx="709.65" cy="902.073" r="17.5" fill="#fd574d"/><text transform="translate(700.65 895.573)" fill="#fff"><tspan font-family="Helvetica" font-size="11" font-weight="400" x=".75" y="10">NO</tspan></text></g><g><circle cx="583.488" cy="311.1" r="17.5" fill="#0f9d58"/><text transform="translate(571.488 304.6)" fill="#fff"><tspan font-family="Helvetica" font-size="11" font-weight="400" x=".995" y="10">YES</tspan></text></g><g><circle cx="167.876" cy="311.1" r="17.5" fill="#0f9d58"/><text transform="translate(155.876 304.6)" fill="#fff"><tspan font-family="Helvetica" font-size="11" font-weight="400" x=".995" y="10">YES</tspan></text></g><g><circle cx="62.248" cy="513.776" r="17.5" fill="#0f9d58"/><text transform="translate(50.248 507.276)" fill="#fff"><tspan font-family="Helvetica" font-size="11" font-weight="400" x=".995" y="10">YES</tspan></text></g><g><circle cx="273.27" cy="513.776" r="17.5" fill="#fd574d"/><text transform="translate(264.27 507.276)" fill="#fff"><tspan font-family="Helvetica" font-size="11" font-weight="400" x=".75" y="10">NO</tspan></text></g><g><circle cx="480.626" cy="130.3" r="17.5" fill="#0f9d58"/><text transform="translate(468.626 123.8)" fill="#fff"><tspan font-family="Helvetica" font-size="11" font-weight="400" x=".995" y="10">YES</tspan></text></g><g><circle cx="275.376" cy="130.3" r="17.5" fill="#fd574d"/><text transform="translate(266.376 123.8)" fill="#fff"><tspan font-family="Helvetica" font-size="11" font-weight="400" x=".75" y="10">NO</tspan></text></g><g><circle cx="450.238" cy="513.776" r="17.5" fill="#fd574d"/><text transform="translate(441.238 507.276)" fill="#fff"><tspan font-family="Helvetica" font-size="11" font-weight="400" x=".75" y="10">NO</tspan></text></g><g><circle cx="717.528" cy="513.776" r="17.5" fill="#0f9d58"/><text transform="translate(705.528 507.276)" fill="#fff"><tspan font-family="Helvetica" font-size="11" font-weight="400" x=".995" y="10">YES</tspan></text></g><g><path fill="#fff" d="M387.962 554.124h124v56h-124z"/><path stroke="#dfdfdf" stroke-linecap="round" stroke-linejoin="round" stroke-width="2" clip-path="url(#d)" d="M387.962 554.124h124v56h-124z"/><text transform="translate(438.962 575.124)" fill="#212121"><tspan font-family="Roboto-Regular, Roboto, Arial, Helvetica, sans-serif" font-size="12" font-weight="400" x="0" y="11">Cloud VPN</tspan></text><g><path d="M431.628 580.838l-5.754-10.006c-.462-.8-1.298-1.286-2.158-1.286h-11.508c-.922 0-1.727.54-2.158 1.285l-5.754 9.986a2.51 2.51 0 0 0 0 2.502l5.753 10.052c.462.798 1.298 1.331 2.158 1.331h11.508c.923 0 1.728-.581 2.158-1.326l5.754-10.006a2.566 2.566 0 0 0 0-2.532" fill="#4285f4"/><path d="M431.951 581.94l-7.676-7.675-3.592 3.585 1.799 1.798v2.366l-1.813.35-1.498-1.498-1.662-.091-1.91 1.43-1.884-1.885-3.582 3.597 10.782 10.785h2.8c.923 0 1.728-.581 2.159-1.326l5.753-10.006a2.53 2.53 0 0 0 .324-1.43" fill="#000" fill-opacity=".07"/><path fill="#fff" d="M419.379 581.577h3.322v1.093h-3.322z"/><path fill="#fff" d="M421.935 577.473h1.093v9.305h-1.093z"/><path d="M420.842 586.384h3.28c.12 0 .219.098.219.218v3.28c0 .121-.098.22-.22.22h-3.28a.219.219 0 0 1-.218-.22v-3.28c0-.12.098-.218.219-.218" fill="#fff"/><g><path d="M420.842 574.201h3.28c.12 0 .219.098.219.219v3.28c0 .12-.098.219-.22.219h-3.28a.219.219 0 0 1-.218-.219v-3.28c0-.12.098-.219.219-.219" fill="#fff"/></g><g><path fill="#fff" d="M413.214 581.577h3.403v1.093h-3.403z"/></g><g><path d="M410.29 580.265h3.28c.121 0 .22.098.22.219v3.28c0 .12-.099.219-.22.219h-3.28a.219.219 0 0 1-.218-.219v-3.28c0-.12.098-.219.218-.219" fill="#fff"/></g><g><path d="M417.957 581.03a1.095 1.095 0 1 0 1.094 1.094c0-.603-.49-1.094-1.094-1.094m0 2.843c-.964 0-1.749-.785-1.749-1.749 0-.965.785-1.75 1.75-1.75.964 0 1.749.785 1.749 1.75 0 .964-.785 1.75-1.75 1.75" fill="#fff"/></g></g></g><g><path fill="#fff" d="M379.379 945.011h135.496v56H379.379z"/><path stroke="#dfdfdf" stroke-linecap="round" stroke-linejoin="round" stroke-width="2" clip-path="url(#e)" d="M379.379 945.011h135.496v56H379.379z"/><text transform="translate(430.38 959.011)" fill="#212121"><tspan font-family="Roboto-Regular, Roboto, Arial, Helvetica, sans-serif" font-size="12" font-weight="400" x="0" y="11">Partner</tspan> <tspan font-family="Roboto-Regular, Roboto, Arial, Helvetica, sans-serif" font-size="12" font-weight="400" x="0" y="25">Interconnect</tspan></text><g><path d="M423.046 971.725l-5.755-10.006a2.528 2.528 0 0 0-2.157-1.286h-11.509a2.526 2.526 0 0 0-2.158 1.286l-5.754 9.986a2.51 2.51 0 0 0 0 2.501l5.754 10.052a2.575 2.575 0 0 0 2.158 1.332h11.508a2.565 2.565 0 0 0 2.158-1.326l5.754-10.007a2.566 2.566 0 0 0 0-2.532z" fill="#4285f4"/><path d="M417.291 984.264l4.764-8.286-8.37-8.37-8.68 1.247 1.833 1.834-5.552 2.979 4.16 4.161-.376.583 7.177 7.178h2.886a2.565 2.565 0 0 0 2.158-1.326z" fill="#4b7ddc"/><path fill="#fff" d="M408.723 968.855h1.313v8.312h-1.313z"/><path fill="#fff" d="M401.286 972.355h2.188v1.313h-2.188z"/><path d="M403.654 970.386h3.138c.22 0 .4.18.4.4v4.45a.4.4 0 0 1-.4.4h-3.138a.4.4 0 0 1-.4-.4v-4.45c0-.22.18-.4.4-.4z" fill="#fff"/><g><path fill="#fff" d="M408.723 968.855h1.313v8.312h-1.313z"/></g><g><path fill="#fff" d="M415.286 972.355h2.188v1.313h-2.188z"/></g><g><path d="M405.004 977.168v1.084a.229.229 0 0 0 .229.228h8.293a.229.229 0 0 0 .228-.228v-1.084z" fill="#fff"/></g><g><path d="M413.526 967.543h-8.293a.228.228 0 0 0-.229.228v1.084h8.75v-1.084a.228.228 0 0 0-.228-.228z" fill="#fff"/></g><g><path d="M411.967 970.386h3.137c.221 0 .4.18.4.4v4.45a.4.4 0 0 1-.4.4h-3.137a.4.4 0 0 1-.4-.4v-4.45c0-.22.179-.4.4-.4z" fill="#fff"/></g></g></g><g><path fill="#fff" d="M641.902 945.011h135.496v56H641.902z"/><path stroke="#dfdfdf" stroke-linecap="round" stroke-linejoin="round" stroke-width="2" clip-path="url(#f)" d="M641.902 945.011h135.496v56H641.902z"/><text transform="translate(692.902 959.011)" fill="#212121"><tspan font-family="Roboto-Regular, Roboto, Arial, Helvetica, sans-serif" font-size="12" font-weight="400" x="0" y="11">Dedicated</tspan> <tspan font-family="Roboto-Regular, Roboto, Arial, Helvetica, sans-serif" font-size="12" font-weight="400" x="0" y="25">Interconnect</tspan></text><g><path d="M685.568 971.725l-5.754-10.006c-.462-.799-1.298-1.286-2.158-1.286h-11.508c-.922 0-1.728.54-2.158 1.285l-5.754 9.987a2.51 2.51 0 0 0 0 2.501l5.753 10.052c.462.799 1.298 1.332 2.158 1.332h11.508c.923 0 1.728-.582 2.158-1.326l5.754-10.007a2.566 2.566 0 0 0 0-2.532" fill="#4285f4"/><path d="M675.553 967.61l-6.714 1.245 2.24 2.24-5.958 2.573 4.16 4.161-.383.576 7.184 7.185h1.573c.923 0 1.728-.582 2.159-1.326l4.524-7.87z" fill="#4b7ddc"/><path fill="#fff" d="M675.292 972.355h2.953v1.313h-2.953z"/><path fill="#fff" d="M674.308 968.855h1.313v8.313h-1.313z"/><g><path fill="#fff" d="M665.12 972.355h2.625v1.313h-2.625z"/></g><g><path d="M669.068 967.543h6.324c.126 0 .228.102.228.228v1.084h-6.78v-1.084c0-.126.101-.228.228-.228" fill="#fff"/></g><g><path d="M668.84 977.168h6.78v1.084a.229.229 0 0 1-.228.228h-6.324a.229.229 0 0 1-.229-.228z" fill="#fff"/></g><g><path d="M667.721 970.386h4.861c.107 0 .195.087.195.195v4.86a.195.195 0 0 1-.195.195h-4.86a.195.195 0 0 1-.195-.194v-4.861c0-.108.087-.195.194-.195" fill="#fff"/></g></g></g></g></svg>